<?xml version="1.0" encoding="utf-8"?>
<!-- Generator: Adobe Illustrator 20.0.0, SVG Export Plug-In . SVG Version: 6.00 Build 0)  -->
<svg version="1.1" id="Layer_1" xmlns="http://www.w3.org/2000/svg" xmlns:xlink="http://www.w3.org/1999/xlink" x="0px" y="0px"
	 viewBox="0 0 1359.1 594.1" style="enable-background:new 0 0 1359.1 594.1;" xml:space="preserve">
<style type="text/css">
	.st0{display:none;}
	.st1{display:inline;fill:url(#SVGID_1_);}
	.st2{display:inline;}
	.st3{fill:url(#SVGID_2_);}
	.st4{fill:url(#SVGID_3_);}
	.st5{fill:url(#SVGID_4_);}
	.st6{fill:url(#SVGID_5_);}
	.st7{display:none;fill:#FFFFFF;}
	.st8{fill:url(#SVGID_6_);}
	.st9{fill:url(#SVGID_7_);}
	.st10{fill:url(#SVGID_8_);}
	.st11{fill:url(#SVGID_9_);}
	.st12{fill:url(#SVGID_10_);}
	.st13{fill:url(#SVGID_11_);}
	.st14{fill:url(#SVGID_12_);}
	.st15{fill:url(#SVGID_13_);}
	.st16{fill:url(#SVGID_14_);}
	.st17{fill:url(#SVGID_15_);}
	.st18{fill:url(#SVGID_16_);}
	.st19{fill:url(#SVGID_17_);}
	.st20{fill:url(#SVGID_18_);}
	.st21{fill:url(#SVGID_19_);}
	.st22{fill:url(#SVGID_20_);}
	.st23{fill:url(#SVGID_21_);}
	.st24{fill:url(#SVGID_22_);}
	.st25{fill:url(#SVGID_23_);}
	.st26{fill:url(#SVGID_24_);}
	.st27{fill:url(#SVGID_25_);}
	.st28{fill:url(#SVGID_26_);}
	.st29{fill:url(#SVGID_27_);}
	.st30{fill:url(#SVGID_28_);}
	.st31{fill:url(#SVGID_29_);}
	.st32{fill:url(#SVGID_30_);}
	.st33{font-family:'Quicksand-Bold';}
	.st34{font-size:272.5028px;}
	.st35{font-family:'Hack-Regular';}
	.st36{font-size:39.0751px;}
	.st37{fill:#FFFFFF;}
	.st38{display:none;fill:url(#SVGID_31_);}
</style>
<g>
	<g class="st0">
		<linearGradient id="SVGID_1_" gradientUnits="userSpaceOnUse" x1="-252.4958" y1="162.298" x2="-783.3762" y2="162.298">
			<stop  offset="0.3746" style="stop-color:#7644C8"/>
			<stop  offset="1" style="stop-color:#1117C8;stop-opacity:0.9"/>
		</linearGradient>
		<path class="st1" d="M-255.9,101.7c-22.2-7.9-44.4-16.2-66.8-23.6c-12.9-4.3-25.3-8.5-36.4-17.2c-15.1-11.8-33.3-17.6-52.4-19
			c-18.5-1.3-35.5,3.6-50.8,14.3c-2,1.4-3.9,2.9-5.8,4.4c-2.3-3.4-3.8-6.3-5.9-8.4c-9.7-9.3-19.5-18.7-29.7-27.5
			c-22.8-19.8-48.5-35-76.4-46.6c-25-10.4-50.9-18.2-77.2-24.6c-58.1-14.1-94-13.1-103.5-12.8c-9.4,0.4-17.2,1.1-22.4,1.6
			c1.4,0.6,6.4,3.5,6.5,3.6c18.9,9.7,38,19.2,56.9,29c20.1,10.4,39.1,22.2,57.3,35.3c0,0-0.1,0-0.1,0C-666,8.6-670,6.7-675,5.1
			c-6.9-2.1-12.5-2.6-17.5-2.8C-705.3,1.6-717.7,1-735.8,3c-7.9,0.9-18.3,2.5-30.4,5.5c2.3,0.6,4.6,1.2,6.9,1.8
			c3.6,1.2,9.3,3.2,16.2,5.7c10.3,3.7,37,12.7,54.7,20.8c36.2,16.5,69.3,38.3,102.6,59.9c2.7,1.8,5.5,3.4,8.3,5
			c1.9,1.1,3.8,2.1,5.7,3.2c4.7,4.6,10.1,8.3,16.6,10.9c7.9,3.2,16,4.9,24.6,3.9c-12.8,13.8-24,28.8-33.7,44.9
			c-17.9,29.7-31.4,61.3-42.3,94.2c-10.2,30.6-18.2,61.8-25.2,93.3c-2.4,10.7-4.7,21.3-7.1,32c4.4-7.8,8-15.8,11.8-23.8
			c5.9-12.4,11.9-24.8,18-37.1c17.4-35.6,39.3-67.8,70.7-92.7c16.9-13.4,34.2-26.1,54.4-34.5c20.7-8.6,40.3-19.5,56.2-35.7
			c9.9-10.1,19.3-20.8,26.6-33.3c5.2-9,13.6-15.2,23.3-19.2c16.2-6.6,33.4-8.1,50.6-8.4c12.8-0.2,25.6,0.1,38.4,0.8
			c12.1,0.6,24.1,2.1,36.4,3.2C-253.7,102.7-254.8,102.1-255.9,101.7z"/>
		<g id="Chim_1.3_1_" class="st2">
			<linearGradient id="SVGID_2_" gradientUnits="userSpaceOnUse" x1="-433.2064" y1="265.1936" x2="-531.1206" y2="95.6011">
				<stop  offset="0" style="stop-color:#1117C8"/>
				<stop  offset="1" style="stop-color:#7644C8"/>
			</linearGradient>
			<path class="st3" d="M-529.4,118.3c-33.3,56.5-62.2,119-83.8,188c-1.4,4.6-2.8,9.1-4.2,13.6c1.3-3.8,3.4-8.9,6.5-14.6
				c0.5-0.9,0.9-1.5,1-1.8c8.5-18.7,18.7-36.4,31.4-52.6c14.5-18.6,32.2-33.8,50.9-47.8c13.5-10.1,28.3-17.6,43.6-24.7
				c24.5-11.4,46.3-26.8,63.2-48.3c1.5-2,12.6-16,16.9-20.8c11.3-12.6,26-17.6,42.2-18.1c16.7-0.5,33.5,0.3,50.2,0.5
				c0.7,0,1.5-0.1,2.5-1c-1.1-0.5-2.2-1.1-3.4-1.4c-10.8-2.8-21.6-5.4-32.2-8.4c-3.5-1-7.1-2.9-9.9-5.3
				c-14.8-12.2-31.1-21.2-50.1-24.4c-20.2-3.4-39.7-0.6-58.3,8.4c-2,1-4.1,1.8-6.5,2.1c2.4-1.8,4.7-3.7,7.1-5.4
				c15.3-10.7,32.3-15.7,50.8-14.3c19.1,1.4,37.3,7.2,52.4,19c11.1,8.7,23.5,12.9,36.4,17.2c22.4,7.4,44.6,15.7,66.8,23.6
				c1.1,0.4,2.2,1,3.4,1.5c-12.3-1.1-24.4-2.5-36.4-3.2c-12.8-0.7-25.6-1-38.4-0.8c-17.2,0.3-34.4,1.7-50.6,8.4
				c-9.8,4-18.1,10.2-23.3,19.2c-7.3,12.5-16.7,23.2-26.6,33.3c-15.8,16.2-35.4,27.2-56.2,35.7c-20.2,8.4-37.5,21-54.4,34.5
				c-31.4,24.9-53.3,57.2-70.7,92.7c-6,12.3-12.1,24.7-18,37.1c-3.8,8-7.5,16-11.8,23.8c2.4-10.7,4.7-21.3,7.1-32
				c7-31.5,15-62.7,25.2-93.3c10.9-32.8,24.4-64.5,42.3-94.2C-554.3,147.9-542.8,132.4-529.4,118.3z"/>
			<g id="canh_6_">
				<linearGradient id="SVGID_3_" gradientUnits="userSpaceOnUse" x1="-783.3762" y1="30.3021" x2="-467.4601" y2="30.3021">
					<stop  offset="0" style="stop-color:#1117C8"/>
					<stop  offset="1" style="stop-color:#7644C8"/>
				</linearGradient>
				<path class="st4" d="M-467.5,61.7c-12.6-9-23.9-17.4-35.7-25.3c-23.7-15.8-49-28.6-76-37.5c-22-7.2-45.5-11-52.6-12.2
					c-5.4-0.9-10-1.6-13.1-2c2.4,1.7,5.9,4.4,10,8c2.2,2,11.1,10.1,21.5,24.7c3.2,4.5,6.2,9.1,8.9,13.8
					c10.6,18.2,20.8,36.7,30.5,55.5c8.7,16.7,21.4,27.8,40,31.5c1.4,0.3,2.7,0.6,4,1.4c-8.8,1.3-17.3-0.5-25.4-3.8
					c-11.7-4.7-20.2-13.2-26.7-23.7c-10.4-16.8-21.9-32.4-36.6-45.8c-30.9-28.1-64.6-52-101.5-71.2c-18.9-9.8-37.9-19.3-56.9-29
					c-0.1,0-5.1-2.9-6.5-3.6c5.2-0.6,13-1.3,22.4-1.6c9.5-0.4,45.4-1.3,103.5,12.8c26.3,6.4,52.2,14.2,77.2,24.6
					c27.8,11.5,53.5,26.8,76.4,46.6c10.2,8.8,20,18.2,29.7,27.5C-471.7,54.6-470.2,57.8-467.5,61.7z M-726.7-45.1
					c38.5,21.8,76.1,44.5,108.8,74.4c-16.2-22.2-35.9-40.8-57.5-57.6c29.1-0.7,56.8,6.2,84.6,12.8
					C-634.7-31.7-679.2-44.9-726.7-45.1z"/>
				
					<linearGradient id="SVGID_4_" gradientUnits="userSpaceOnUse" x1="-764.4987" y1="54.8512" x2="-571.2231" y2="54.8512" gradientTransform="matrix(0.9993 -3.610329e-02 3.610329e-02 0.9993 -2.3379 -24.0644)">
					<stop  offset="0" style="stop-color:#1117C8"/>
					<stop  offset="1" style="stop-color:#7644C8"/>
				</linearGradient>
				<path class="st5" d="M-616.6,69.1c-21.2-16.8-42.3-33.7-63.5-50.5c3.3-0.3,7.5-0.5,12.4-0.1c1.2,0.1,5.5,0.5,11.1,1.8
					c4.2,1,9.7,2.7,15.8,5.6c-5.1,0-10.2,0-15.3,0c5.3,5.1,13.2,12.8,22.9,22.2c9.6,9.3,16.6,15.9,20.5,19.8
					c13.7,13.5,28.7,25.5,43.4,38.4c-2.7-1.5-5.5-3-8.3-4.6c-2.8-1.6-5.6-3.3-8.3-5c-33.3-21.6-66.4-43.4-102.6-59.9
					c-17.7-8-44.4-17.1-54.7-20.8c-6.9-2.5-12.6-4.4-16.2-5.7c-2.3-0.6-4.6-1.2-6.9-1.8c12.1-3,22.5-4.6,30.4-5.5
					c18.1-2.1,30.5-1.4,43.3-0.8c5,0.3,10.6,0.7,17.5,2.8c6.4,2,11.3,4.7,14.7,6.7c-2.9-0.4-5.7-0.9-8.6-1.3
					c-6.6-1.1-14.7-1.9-23.9-1.7c-10.6,0.2-19.7,1.8-26.9,3.5c15.3,6.3,32,14.1,49.5,23.7c14.5,8,27.6,16.1,39.3,24.1
					C-626.2,63.2-621.4,66.2-616.6,69.1z"/>
				<linearGradient id="SVGID_5_" gradientUnits="userSpaceOnUse" x1="-488.8925" y1="67.2459" x2="-578.9592" y2="67.2459">
					<stop  offset="0" style="stop-color:#7644C8"/>
					<stop  offset="1" style="stop-color:#1117C8;stop-opacity:0.9"/>
				</linearGradient>
				<path class="st6" d="M-514.4,105.2c-30.2-9.3-66.8-52.2-64.5-75.9c34,5.7,62.6,22.4,90,42c-23.5-13.2-47.8-24.6-76.3-28.8
					C-557,71.6-537.6,90-514.4,105.2z"/>
			</g>
		</g>
	</g>
</g>
<g>
	<g id="_x33_">
		<rect x="60" y="-5.2" class="st7" width="1220.9" height="600.1"/>
		<g id="Chim_1.3">
			<g id="canh_11_">
				<g>
					<g>
						<linearGradient id="SVGID_6_" gradientUnits="userSpaceOnUse" x1="149.7645" y1="151.0795" x2="339.8294" y2="151.0795">
							<stop  offset="0" style="stop-color:#1117C8"/>
							<stop  offset="0.6221" style="stop-color:#7644C8"/>
						</linearGradient>
						<path class="st8" d="M304.9,175.2c-2.4-1.9-5.7-4.4-9.5-7.3c0,0-8.2-6.2-15.9-11.7c-24-17.3-51-32.9-51.1-32.9l0,0
							c-16.1-9-29.1-15.4-39.2-19.5c11.7-0.7,21.6-0.5,29.3,0c10.7,0.7,19.3,2,24.3,2.7c4.7,0.7,8.7,1.4,11.5,2
							c-1.5-1-3.9-2.5-6.8-4c-4-2-14-6.7-37.1-8.4c-4.6-0.3-15.9-1-30.9,0c-12,0.8-22.1,2.5-29.7,4c2.7,0.4,6.8,1.2,11.5,2.5
							c10.1,2.8,17.4,6.3,20.9,8.1c29.8,14.9,44.1,23.3,44.1,23.3s57.6,34.3,97.6,62.5c0.1,0.1,0.5,0.4,1.1,0.8
							c1.4,1,3.8,2.7,6.9,4.6c2.6,1.7,5.3,3.3,8,4.9c-5.3-5.3-11-10.8-17.2-16.3C316.6,185,310.7,179.9,304.9,175.2z"/>
					</g>
					<linearGradient id="SVGID_7_" gradientUnits="userSpaceOnUse" x1="495.4076" y1="365.2521" x2="397.4934" y2="195.6596">
						<stop  offset="0" style="stop-color:#1117C8"/>
						<stop  offset="1" style="stop-color:#7644C8"/>
					</linearGradient>
					<path class="st9" d="M399.2,218.4c-33.3,56.5-62.2,119-83.8,188c-1.4,4.6-2.8,9.1-4.2,13.6c1.3-3.8,3.4-8.9,6.5-14.6
						c0.5-0.9,0.9-1.5,1-1.8c8.5-18.7,18.7-36.4,31.4-52.6c14.5-18.6,32.2-33.8,50.9-47.8c13.5-10.1,28.3-17.6,43.6-24.7
						c24.5-11.4,46.3-26.8,63.2-48.3c1.5-2,12.6-16,16.9-20.8c11.3-12.6,26-17.6,42.2-18.1c16.7-0.5,33.5,0.3,50.2,0.5
						c0.7,0,1.5-0.1,2.5-1c-1.1-0.5-2.2-1.1-3.4-1.4c-10.8-2.8-21.6-5.4-32.2-8.4c-3.5-1-7.1-2.9-9.9-5.3
						c-14.8-12.2-31.1-21.2-50.1-24.4c-20.2-3.4-39.7-0.6-58.3,8.4c-2,1-4.1,1.8-6.5,2.1c2.4-1.8,4.7-3.7,7.1-5.4
						c15.3-10.7,32.3-15.7,50.8-14.3c19.1,1.4,37.3,7.2,52.4,19c11.1,8.7,23.5,12.9,36.4,17.2c22.4,7.4,44.6,15.7,66.8,23.6
						c1.1,0.4,2.2,1,3.4,1.5c-12.3-1.1-24.4-2.5-36.4-3.2c-12.8-0.7-25.6-1-38.4-0.8c-17.2,0.3-34.4,1.7-50.6,8.4
						c-9.8,4-18.1,10.2-23.3,19.2c-7.3,12.5-16.7,23.2-26.6,33.3c-15.8,16.2-35.4,27.2-56.2,35.7c-20.2,8.4-37.5,21-54.4,34.5
						c-31.4,24.9-53.3,57.2-70.7,92.7c-6,12.3-12.1,24.7-18,37.1c-3.8,8-7.5,16-11.8,23.8c2.4-10.7,4.7-21.3,7.1-32
						c7-31.5,15-62.7,25.2-93.3c10.9-32.8,24.4-64.5,42.3-94.2C374.3,247.9,385.9,232.5,399.2,218.4z"/>
					<g>
						<linearGradient id="SVGID_8_" gradientUnits="userSpaceOnUse" x1="144.1191" y1="126.6463" x2="457.3177" y2="126.6463">
							<stop  offset="0" style="stop-color:#1117C8"/>
							<stop  offset="0.6221" style="stop-color:#7644C8"/>
						</linearGradient>
						<path class="st10" d="M416.6,129.3c7.5,5.1,12.2,8.5,14.9,10.6c10.7,7.9,19.5,15,25.8,20.3c-2.6-3.9-4.1-7.1-6.5-9.5
							c-9.6-9.4-19.2-18.8-29.2-27.7c-22.5-20-47.8-35.5-75.3-47.3C321.6,65,296,56.9,269.8,50.2c-57.7-14.8-93.5-14.3-102.8-14.1
							c-9.6,0.2-17.6,0.9-22.9,1.4c1.3,0.6,15.2,7.8,16,8.3c8.8,5,35.8,18.8,47.1,24.9c9.1,4.8,30.9,16.4,55.5,34.4
							c16.2,11.9,29.9,24,44.6,37.7c14.4,13.5,25.8,29.2,35.8,46c6.3,10.6,14.6,19.1,26.2,23.9c8.1,3.4,16.4,5.2,25.2,4.1
							c-1.3-0.8-2.6-1.2-4-1.5c-7.2-1.5-13.5-4.2-19-7.8c-8.5-5.6-15-15.4-20.4-24.1c-14-22.5-15.5-25.9-25.5-38
							c-6.4-7.7-12.4-13.8-14.4-15.8c-5.4-5.3-10-9.4-14.6-13.3c-16.4-13.8-31.4-24.4-33.8-26.1c-23.9-16.8-47.2-31.1-61.9-39.7
							c19.5,1,42.9,3.6,68.8,9.6c24.3,5.7,45.1,13,62.3,20.3c14.9,6.5,27,12.8,35.8,17.7C386.9,108.9,401.5,118.9,416.6,129.3z"/>
					</g>
				</g>
			</g>
		</g>
		<g id="lito">
			<linearGradient id="SVGID_9_" gradientUnits="userSpaceOnUse" x1="620.4847" y1="327.1199" x2="742.514" y2="327.1199">
				<stop  offset="0.4047" style="stop-color:#1117C8"/>
				<stop  offset="1" style="stop-color:#7644C8"/>
			</linearGradient>
			<path class="st11" d="M737.7,395.1c3.2,3,4.8,6.9,4.8,11.6c0,4.5-1.6,8.3-4.8,11.3c-3.2,3-7.1,4.5-11.9,4.5h-88.7
				c-4.7,0-8.7-1.6-11.9-4.8c-3.2-3.2-4.8-7.1-4.8-11.9V248.4c0-4.7,1.6-8.7,4.9-11.9c3.3-3.2,7.5-4.8,12.6-4.8
				c4.5,0,8.5,1.6,11.7,4.8c3.3,3.2,4.9,7.1,4.9,11.9v142.2h71.3C730.6,390.6,734.6,392.1,737.7,395.1z"/>
			<linearGradient id="SVGID_10_" gradientUnits="userSpaceOnUse" x1="768.4476" y1="324.5311" x2="802.845" y2="324.5311">
				<stop  offset="0.5351" style="stop-color:#1117C8"/>
				<stop  offset="1" style="stop-color:#7644C8"/>
			</linearGradient>
			<path class="st12" d="M772.3,256c-2.6-2-3.8-5.5-3.8-10.6v-5.2c0-5.1,1.4-8.6,4.1-10.6c2.7-2,7.1-3,13.1-3c6.4,0,10.8,1,13.4,3
				c2.5,2,3.8,5.5,3.8,10.6v5.2c0,5.3-1.3,8.9-4,10.8c-2.6,1.9-7.1,2.9-13.5,2.9C779.2,259,774.8,258,772.3,256z M797.4,417.7
				c-3.1,3.2-7,4.8-11.7,4.8c-4.7,0-8.6-1.6-11.7-4.8c-3.1-3.2-4.6-7.1-4.6-11.9V293.3c0-4.7,1.5-8.7,4.6-11.9
				c3.1-3.2,7-4.8,11.7-4.8c4.7,0,8.6,1.6,11.7,4.8c3.1,3.2,4.6,7.1,4.6,11.9v112.5C802,410.6,800.5,414.6,797.4,417.7z"/>
			<linearGradient id="SVGID_11_" gradientUnits="userSpaceOnUse" x1="817.8577" y1="327.1199" x2="972.3743" y2="327.1199">
				<stop  offset="0" style="stop-color:#1117C8"/>
				<stop  offset="0.6288" style="stop-color:#7644C8"/>
			</linearGradient>
			<path class="st13" d="M967.7,236.1c3.1,2.9,4.6,6.7,4.6,11.4c0,4.7-1.5,8.5-4.6,11.3c-3.1,2.8-7.1,4.2-12,4.2h-42.9v142.8
				c0,4.7-1.7,8.7-5.2,11.9c-3.5,3.2-7.7,4.8-12.8,4.8c-5.1,0-9.3-1.6-12.6-4.8c-3.3-3.2-4.9-7.1-4.9-11.9V263.1h-42.9
				c-4.9,0-8.9-1.5-12-4.4c-3.1-2.9-4.6-6.7-4.6-11.4c0-4.5,1.6-8.3,4.8-11.2c3.2-2.9,7.1-4.4,11.9-4.4h121.2
				C960.6,231.7,964.6,233.2,967.7,236.1z"/>
			<linearGradient id="SVGID_12_" gradientUnits="userSpaceOnUse" x1="957.3577" y1="349.6014" x2="1105.8674" y2="349.6014">
				<stop  offset="0" style="stop-color:#1117C8"/>
				<stop  offset="0.5786" style="stop-color:#7644C8"/>
			</linearGradient>
			<path class="st14" d="M1096,388.8c-6.6,11.5-15.5,20.5-26.9,26.8c-11.4,6.4-23.9,9.5-37.5,9.5c-13.8,0-26.4-3.2-37.7-9.5
				c-11.3-6.4-20.2-15.3-26.8-26.8c-6.6-11.5-9.8-24.6-9.8-39.1c0-14.5,3.3-27.6,9.8-39.1c6.6-11.5,15.5-20.5,26.8-27
				c11.3-6.4,23.8-9.7,37.7-9.7c13.7,0,26.2,3.2,37.5,9.7c11.4,6.5,20.3,15.4,26.9,27c6.6,11.5,9.8,24.6,9.8,39.1
				C1105.9,364.3,1102.6,377.3,1096,388.8z M1067.5,325.9c-3.7-7-8.7-12.4-15-16.2c-6.3-3.8-13.2-5.7-20.9-5.7
				c-7.6,0-14.6,1.9-20.9,5.7c-6.3,3.8-11.3,9.2-15,16.2c-3.7,7-5.6,14.9-5.6,23.8c0,8.9,1.9,16.8,5.6,23.7
				c3.7,6.9,8.7,12.3,15,16.1c6.3,3.8,13.2,5.7,20.9,5.7c7.6,0,14.6-1.9,20.9-5.7c6.3-3.8,11.3-9.2,15-16.1
				c3.7-6.9,5.6-14.8,5.6-23.7C1073.1,340.8,1071.2,332.9,1067.5,325.9z"/>
		</g>
		<g>
			<linearGradient id="SVGID_13_" gradientUnits="userSpaceOnUse" x1="623.1605" y1="469.7703" x2="643.098" y2="469.7703">
				<stop  offset="0" style="stop-color:#1117C8"/>
				<stop  offset="1" style="stop-color:#7644C8"/>
			</linearGradient>
			<path class="st15" d="M636,484.5c-2,0-3.8-0.3-5.4-1c-1.6-0.6-3-1.6-4.1-2.9c-1.1-1.3-2-2.9-2.5-4.7s-0.8-3.9-0.8-6.2
				c0-2.3,0.3-4.4,0.8-6.2c0.6-1.8,1.4-3.4,2.6-4.7c1.1-1.3,2.5-2.3,4.1-2.9c1.6-0.6,3.4-1,5.4-1c0.7,0,1.3,0,2,0.1
				c0.6,0.1,1.2,0.2,1.7,0.3c0.5,0.1,1.1,0.3,1.7,0.5c0.6,0.2,1.2,0.4,1.7,0.7v3.9c-1-0.8-2.2-1.4-3.4-1.8c-0.6-0.2-1.2-0.4-1.8-0.5
				c-0.6-0.1-1.2-0.2-1.9-0.2c-1.4,0-2.6,0.2-3.6,0.7c-1,0.5-1.9,1.2-2.6,2.2c-1.4,1.9-2.1,4.9-2.1,8.8c0,3.9,0.7,6.8,2.1,8.7
				s3.5,2.9,6.3,2.9c0.6,0,1.3,0,1.9-0.2c0.6-0.1,1.2-0.3,1.8-0.5c1.2-0.4,2.3-1,3.4-1.8v4c-1.1,0.5-2.2,0.9-3.4,1.2
				c-0.6,0.1-1.1,0.2-1.8,0.3C637.3,484.5,636.7,484.5,636,484.5z"/>
			<linearGradient id="SVGID_14_" gradientUnits="userSpaceOnUse" x1="652.9612" y1="473.0516" x2="669.889" y2="473.0516">
				<stop  offset="0" style="stop-color:#1117C8"/>
				<stop  offset="1" style="stop-color:#7644C8"/>
			</linearGradient>
			<path class="st16" d="M653,462.6h3.6l0.4,4.2c0.7-1.5,1.7-2.7,3-3.5c1.3-0.8,2.9-1.2,4.8-1.2c1,0,1.9,0.1,2.7,0.3
				c0.4,0.1,0.8,0.2,1.2,0.4c0.4,0.2,0.8,0.4,1.2,0.6v3.6c-0.8-0.6-1.7-1-2.6-1.3c-0.9-0.3-1.8-0.4-2.9-0.4c-2.4,0-4.3,0.7-5.6,2.1
				c-1.3,1.4-1.9,3.3-1.9,6V484H653V462.6z"/>
			<linearGradient id="SVGID_15_" gradientUnits="userSpaceOnUse" x1="675.4827" y1="473.3284" x2="696.596" y2="473.3284">
				<stop  offset="0" style="stop-color:#1117C8"/>
				<stop  offset="1" style="stop-color:#7644C8"/>
			</linearGradient>
			<path class="st17" d="M687.3,484.5c-1.8,0-3.5-0.3-4.9-0.8c-1.5-0.5-2.7-1.2-3.7-2.2c-1-1-1.8-2.2-2.3-3.5
				c-0.5-1.4-0.8-2.9-0.8-4.7c0-1.8,0.3-3.4,0.8-4.7c0.5-1.4,1.3-2.5,2.2-3.5c1-1,2.3-1.8,3.7-2.3c1.4-0.5,2.9-0.8,4.5-0.8
				c1.6,0,3,0.2,4.2,0.7c1.2,0.5,2.2,1.2,3.1,2c0.9,0.9,1.5,2,2,3.2c0.4,1.3,0.7,2.7,0.7,4.3v1.7h-17v0.1c0,2.3,0.7,4.1,2,5.4
				c0.7,0.6,1.4,1.1,2.4,1.4c0.9,0.3,2,0.5,3.3,0.5s2.6-0.2,3.9-0.5c1.4-0.4,2.8-0.9,4.4-1.6v3.5c-0.8,0.3-1.5,0.5-2.2,0.7
				s-1.4,0.4-2.1,0.5c-0.7,0.1-1.4,0.2-2,0.3C688.6,484.5,688,484.5,687.3,484.5z M692.7,471.4c0-1.1-0.2-2-0.5-2.8
				c-0.3-0.8-0.7-1.4-1.1-1.9c-0.5-0.5-1.1-0.9-1.9-1.2c-0.8-0.3-1.6-0.4-2.5-0.4c-1.9,0-3.5,0.6-4.7,1.7c-1.2,1.1-1.9,2.7-2.2,4.7
				L692.7,471.4z"/>
			<linearGradient id="SVGID_16_" gradientUnits="userSpaceOnUse" x1="702.0609" y1="473.3284" x2="723.0882" y2="473.3284">
				<stop  offset="0" style="stop-color:#1117C8"/>
				<stop  offset="1" style="stop-color:#7644C8"/>
			</linearGradient>
			<path class="st18" d="M710.1,484.5c-2.5,0-4.4-0.6-5.9-1.9c-0.7-0.6-1.2-1.3-1.6-2.1s-0.6-1.8-0.6-2.9c0-2.4,0.9-4.2,2.7-5.4
				c1.8-1.2,4.4-1.9,7.9-1.9h5.3V470c0-0.8-0.1-1.5-0.4-2.2c-0.2-0.6-0.6-1.2-1.1-1.5c-0.5-0.4-1.1-0.7-1.9-0.9
				c-0.8-0.2-1.7-0.3-2.7-0.3c-1.4,0-2.7,0.2-4.1,0.5c-1.4,0.3-2.7,0.8-4,1.5v-3.5c0.6-0.2,1.3-0.4,2-0.6c0.7-0.2,1.5-0.4,2.2-0.5
				c1.3-0.2,2.6-0.4,3.9-0.4c1,0,1.9,0.1,2.8,0.2c0.8,0.1,1.6,0.3,2.3,0.6c0.7,0.3,1.3,0.6,1.9,1c0.6,0.4,1.1,0.8,1.5,1.3
				c0.3,0.4,0.5,0.8,0.7,1.2c0.2,0.4,0.3,0.8,0.4,1.2c0.2,0.9,0.3,2.3,0.3,4.2v4.4c0,0.7,0,1.4,0.1,1.9c0,0.6,0.1,1.1,0.1,1.6
				c0.1,0.5,0.2,1,0.2,1.5c0.1,0.5,0.2,0.8,0.2,1.1c0.1,0.4,0.2,0.8,0.3,1.1c0.1,0.3,0.2,0.6,0.2,0.6h-3.9c-0.1-0.2-0.2-0.4-0.3-0.7
				c-0.1-0.3-0.2-0.6-0.3-1c-0.1-0.3-0.1-0.6-0.2-0.8s-0.1-0.5-0.1-0.7c-0.4,0.6-0.9,1.2-1.6,1.7c-0.6,0.5-1.3,0.9-1.9,1.2
				c-0.7,0.3-1.4,0.5-2.2,0.7C711.8,484.5,711,484.5,710.1,484.5z M710.9,481.6c2.1,0,3.8-0.7,5.1-2c1.3-1.4,1.9-3.2,1.9-5.6v-0.8
				h-5c-2.3,0-4,0.4-5.2,1.1c-0.6,0.4-1.1,0.8-1.3,1.4c-0.3,0.5-0.4,1.2-0.4,1.9c0,0.7,0.1,1.2,0.3,1.7c0.2,0.5,0.5,0.9,1,1.3
				c0.4,0.3,0.9,0.6,1.5,0.8C709.4,481.5,710.1,481.6,710.9,481.6z"/>
			<linearGradient id="SVGID_17_" gradientUnits="userSpaceOnUse" x1="728.2757" y1="469.7889" x2="747.5081" y2="469.7889">
				<stop  offset="0" style="stop-color:#1117C8"/>
				<stop  offset="1" style="stop-color:#7644C8"/>
			</linearGradient>
			<path class="st19" d="M736.5,482.5c-1.2-1-1.8-2.9-1.8-5.5v-11.7h-6.4v-2.7h6.4V457l3.9-1.5v7.1h8.9v2.7h-8.9V477
				c0,1.6,0.3,2.7,1,3.3c0.7,0.6,1.8,0.9,3.5,0.9h4.4v2.8h-4.8C739.8,484.1,737.7,483.5,736.5,482.5z"/>
			<linearGradient id="SVGID_18_" gradientUnits="userSpaceOnUse" x1="757.5218" y1="469.2264" x2="775.1116" y2="469.2264">
				<stop  offset="0" style="stop-color:#1117C8"/>
				<stop  offset="1" style="stop-color:#7644C8"/>
			</linearGradient>
			<path class="st20" d="M770.1,484.1c-1.1,0-2.2-0.2-3.1-0.5s-1.7-0.8-2.4-1.5c-1.3-1.3-1.9-3.3-1.9-5.7v-11h-5.2v-2.7h9.2v13.8
				c0,1.6,0.3,2.8,1,3.6c0.3,0.4,0.8,0.7,1.2,0.9c0.5,0.2,1,0.3,1.6,0.3h4.6v3H770.1z M763,458.8c-0.4,0-0.6-0.2-0.6-0.6v-3.3
				c0-0.4,0.2-0.6,0.6-0.6h3.1c0.4,0,0.6,0.2,0.6,0.6v3.3c0,0.4-0.2,0.6-0.6,0.6H763z"/>
			<linearGradient id="SVGID_19_" gradientUnits="userSpaceOnUse" x1="780.2562" y1="473.3094" x2="802.3089" y2="473.3094">
				<stop  offset="0" style="stop-color:#1117C8"/>
				<stop  offset="1" style="stop-color:#7644C8"/>
			</linearGradient>
			<path class="st21" d="M780.3,462.6h4.1l6.9,17.9l7-17.9h4.1l-8.5,21.4h-5.1L780.3,462.6z"/>
			<linearGradient id="SVGID_20_" gradientUnits="userSpaceOnUse" x1="807.0901" y1="473.3284" x2="828.2034" y2="473.3284">
				<stop  offset="0" style="stop-color:#1117C8"/>
				<stop  offset="1" style="stop-color:#7644C8"/>
			</linearGradient>
			<path class="st22" d="M818.9,484.5c-1.8,0-3.5-0.3-4.9-0.8c-1.5-0.5-2.7-1.2-3.7-2.2c-1-1-1.8-2.2-2.3-3.5
				c-0.5-1.4-0.8-2.9-0.8-4.7c0-1.8,0.3-3.4,0.8-4.7c0.5-1.4,1.3-2.5,2.2-3.5c1-1,2.3-1.8,3.7-2.3c1.4-0.5,2.9-0.8,4.5-0.8
				c1.6,0,3,0.2,4.2,0.7c1.2,0.5,2.2,1.2,3.1,2c0.9,0.9,1.5,2,2,3.2c0.4,1.3,0.7,2.7,0.7,4.3v1.7h-17v0.1c0,2.3,0.7,4.1,2,5.4
				c0.7,0.6,1.4,1.1,2.4,1.4c0.9,0.3,2,0.5,3.3,0.5s2.6-0.2,3.9-0.5c1.4-0.4,2.8-0.9,4.4-1.6v3.5c-0.8,0.3-1.5,0.5-2.2,0.7
				s-1.4,0.4-2.1,0.5c-0.7,0.1-1.4,0.2-2,0.3C820.2,484.5,819.6,484.5,818.9,484.5z M824.3,471.4c0-1.1-0.2-2-0.5-2.8
				c-0.3-0.8-0.7-1.4-1.1-1.9c-0.5-0.5-1.1-0.9-1.9-1.2c-0.8-0.3-1.6-0.4-2.5-0.4c-1.9,0-3.5,0.6-4.7,1.7c-1.2,1.1-1.9,2.7-2.2,4.7
				L824.3,471.4z"/>
			<linearGradient id="SVGID_21_" gradientUnits="userSpaceOnUse" x1="861.3773" y1="469.7508" x2="879.0745" y2="469.7508">
				<stop  offset="0" style="stop-color:#1117C8"/>
				<stop  offset="1" style="stop-color:#7644C8"/>
			</linearGradient>
			<path class="st23" d="M861.4,480.8h6.7v-22h-6.7v-3.2h17.7v3.2h-6.7v22h6.7v3.2h-17.7V480.8z"/>
			<linearGradient id="SVGID_22_" gradientUnits="userSpaceOnUse" x1="887.5706" y1="473.0516" x2="905.8441" y2="473.0516">
				<stop  offset="0" style="stop-color:#1117C8"/>
				<stop  offset="1" style="stop-color:#7644C8"/>
			</linearGradient>
			<path class="st24" d="M887.6,462.6h3.5l0.4,3.2c0.7-1.2,1.7-2.2,2.8-2.8s2.6-0.9,4.2-0.9c1.3,0,2.4,0.2,3.3,0.6s1.6,0.9,2.2,1.6
				c1.2,1.4,1.8,3.6,1.8,6.5V484h-3.9v-13.2c0-1.9-0.4-3.3-1.1-4.2s-1.9-1.4-3.6-1.4c-0.9,0-1.8,0.1-2.4,0.4s-1.3,0.7-1.8,1.3
				c-1,1.2-1.5,2.8-1.5,5V484h-3.9V462.6z"/>
			<linearGradient id="SVGID_23_" gradientUnits="userSpaceOnUse" x1="913.8929" y1="473.0516" x2="932.1663" y2="473.0516">
				<stop  offset="0" style="stop-color:#1117C8"/>
				<stop  offset="1" style="stop-color:#7644C8"/>
			</linearGradient>
			<path class="st25" d="M913.9,462.6h3.5l0.4,3.2c0.7-1.2,1.7-2.2,2.8-2.8s2.6-0.9,4.2-0.9c1.3,0,2.4,0.2,3.3,0.6s1.6,0.9,2.2,1.6
				c1.2,1.4,1.8,3.6,1.8,6.5V484h-3.9v-13.2c0-1.9-0.4-3.3-1.1-4.2s-1.9-1.4-3.6-1.4c-0.9,0-1.8,0.1-2.4,0.4s-1.3,0.7-1.8,1.3
				c-1,1.2-1.5,2.8-1.5,5V484h-3.9V462.6z"/>
			<linearGradient id="SVGID_24_" gradientUnits="userSpaceOnUse" x1="938.9769" y1="473.3284" x2="959.4495" y2="473.3284">
				<stop  offset="0" style="stop-color:#1117C8"/>
				<stop  offset="1" style="stop-color:#7644C8"/>
			</linearGradient>
			<path class="st26" d="M949.2,484.5c-1.6,0-3.1-0.2-4.4-0.7c-1.3-0.5-2.4-1.2-3.2-2.1c-0.9-1-1.6-2.2-2-3.6
				c-0.4-1.4-0.6-3-0.6-4.8c0-3.6,0.9-6.4,2.6-8.3c1.8-1.9,4.3-2.9,7.6-2.9c1.7,0,3.2,0.2,4.5,0.7c1.3,0.5,2.3,1.2,3.2,2.1
				c1.8,1.9,2.6,4.7,2.6,8.3c0,1.8-0.2,3.4-0.7,4.8s-1.1,2.6-2,3.5c-0.9,0.9-1.9,1.7-3.2,2.1S950.9,484.5,949.2,484.5z M949.2,481.6
				c2,0,3.5-0.7,4.5-2.1c1-1.4,1.5-3.4,1.5-6.1c0-2.7-0.5-4.8-1.5-6.2c-1-1.4-2.5-2.1-4.5-2.1c-2,0-3.5,0.7-4.5,2.1
				c-1,1.4-1.5,3.5-1.5,6.2c0,2.7,0.5,4.8,1.5,6.1C945.7,480.9,947.2,481.6,949.2,481.6z"/>
			<linearGradient id="SVGID_25_" gradientUnits="userSpaceOnUse" x1="964.5081" y1="473.3094" x2="986.5589" y2="473.3094">
				<stop  offset="0" style="stop-color:#1117C8"/>
				<stop  offset="1" style="stop-color:#7644C8"/>
			</linearGradient>
			<path class="st27" d="M964.5,462.6h4.1l6.9,17.9l7-17.9h4.1l-8.5,21.4H973L964.5,462.6z"/>
			<linearGradient id="SVGID_26_" gradientUnits="userSpaceOnUse" x1="991.598" y1="473.3284" x2="1012.6253" y2="473.3284">
				<stop  offset="0" style="stop-color:#1117C8"/>
				<stop  offset="1" style="stop-color:#7644C8"/>
			</linearGradient>
			<path class="st28" d="M999.6,484.5c-2.5,0-4.4-0.6-5.9-1.9c-0.7-0.6-1.2-1.3-1.6-2.1c-0.4-0.8-0.6-1.8-0.6-2.9
				c0-2.4,0.9-4.2,2.7-5.4c1.8-1.2,4.4-1.9,7.9-1.9h5.3V470c0-0.8-0.1-1.5-0.4-2.2c-0.2-0.6-0.6-1.2-1.1-1.5
				c-0.5-0.4-1.1-0.7-1.9-0.9c-0.8-0.2-1.7-0.3-2.7-0.3c-1.4,0-2.7,0.2-4.1,0.5c-1.4,0.3-2.7,0.8-4,1.5v-3.5c0.6-0.2,1.3-0.4,2-0.6
				c0.7-0.2,1.5-0.4,2.2-0.5c1.3-0.2,2.6-0.4,3.9-0.4c1,0,1.9,0.1,2.8,0.2c0.8,0.1,1.6,0.3,2.3,0.6c0.7,0.3,1.3,0.6,1.9,1
				c0.6,0.4,1.1,0.8,1.5,1.3c0.3,0.4,0.5,0.8,0.7,1.2s0.3,0.8,0.4,1.2c0.2,0.9,0.3,2.3,0.3,4.2v4.4c0,0.7,0.1,1.4,0.1,1.9
				c0,0.6,0.1,1.1,0.1,1.6c0.1,0.5,0.2,1,0.2,1.5c0.1,0.5,0.2,0.8,0.2,1.1c0.1,0.4,0.2,0.8,0.3,1.1s0.2,0.6,0.2,0.6h-3.9
				c-0.1-0.2-0.2-0.4-0.3-0.7c-0.1-0.3-0.2-0.6-0.3-1c-0.1-0.3-0.1-0.6-0.2-0.8s-0.1-0.5-0.1-0.7c-0.4,0.6-0.9,1.2-1.6,1.7
				c-0.6,0.5-1.3,0.9-1.9,1.2c-0.7,0.3-1.4,0.5-2.2,0.7C1001.3,484.5,1000.5,484.5,999.6,484.5z M1000.5,481.6c2.1,0,3.8-0.7,5.1-2
				c1.3-1.4,1.9-3.2,1.9-5.6v-0.8h-5c-2.3,0-4,0.4-5.2,1.1c-0.6,0.4-1.1,0.8-1.3,1.4c-0.3,0.5-0.4,1.2-0.4,1.9
				c0,0.7,0.1,1.2,0.3,1.7c0.2,0.5,0.5,0.9,1,1.3c0.4,0.3,0.9,0.6,1.5,0.8C998.9,481.5,999.6,481.6,1000.5,481.6z"/>
			<linearGradient id="SVGID_27_" gradientUnits="userSpaceOnUse" x1="1017.8128" y1="469.7889" x2="1037.0471" y2="469.7889">
				<stop  offset="0" style="stop-color:#1117C8"/>
				<stop  offset="1" style="stop-color:#7644C8"/>
			</linearGradient>
			<path class="st29" d="M1026,482.5c-1.2-1-1.8-2.9-1.8-5.5v-11.7h-6.4v-2.7h6.4V457l3.9-1.5v7.1h8.9v2.7h-8.9V477
				c0,1.6,0.3,2.7,1,3.3c0.7,0.6,1.8,0.9,3.5,0.9h4.4v2.8h-4.8C1029.3,484.1,1027.2,483.5,1026,482.5z"/>
			<linearGradient id="SVGID_28_" gradientUnits="userSpaceOnUse" x1="1047.0588" y1="469.2264" x2="1064.6487" y2="469.2264">
				<stop  offset="0" style="stop-color:#1117C8"/>
				<stop  offset="1" style="stop-color:#7644C8"/>
			</linearGradient>
			<path class="st30" d="M1059.7,484.1c-1.1,0-2.2-0.2-3.1-0.5s-1.7-0.8-2.4-1.5c-1.3-1.3-1.9-3.3-1.9-5.7v-11h-5.2v-2.7h9.2v13.8
				c0,1.6,0.3,2.8,1,3.6c0.3,0.4,0.8,0.7,1.2,0.9c0.5,0.2,1,0.3,1.6,0.3h4.6v3H1059.7z M1052.5,458.8c-0.4,0-0.6-0.2-0.6-0.6v-3.3
				c0-0.4,0.2-0.6,0.6-0.6h3.1c0.4,0,0.6,0.2,0.6,0.6v3.3c0,0.4-0.2,0.6-0.6,0.6H1052.5z"/>
			<linearGradient id="SVGID_29_" gradientUnits="userSpaceOnUse" x1="1070.5842" y1="473.3284" x2="1091.0569" y2="473.3284">
				<stop  offset="0" style="stop-color:#1117C8"/>
				<stop  offset="1" style="stop-color:#7644C8"/>
			</linearGradient>
			<path class="st31" d="M1080.8,484.5c-1.6,0-3.1-0.2-4.4-0.7c-1.3-0.5-2.4-1.2-3.2-2.1c-0.9-1-1.6-2.2-2-3.6
				c-0.4-1.4-0.6-3-0.6-4.8c0-3.6,0.9-6.4,2.6-8.3c1.8-1.9,4.3-2.9,7.6-2.9c1.7,0,3.2,0.2,4.5,0.7c1.3,0.5,2.3,1.2,3.2,2.1
				c1.8,1.9,2.6,4.7,2.6,8.3c0,1.8-0.2,3.4-0.7,4.8s-1.1,2.6-2,3.5c-0.9,0.9-1.9,1.7-3.2,2.1S1082.5,484.5,1080.8,484.5z
				 M1080.8,481.6c2,0,3.5-0.7,4.5-2.1c1-1.4,1.5-3.4,1.5-6.1c0-2.7-0.5-4.8-1.5-6.2c-1-1.4-2.5-2.1-4.5-2.1c-2,0-3.5,0.7-4.5,2.1
				c-1,1.4-1.5,3.5-1.5,6.2c0,2.7,0.5,4.8,1.5,6.1C1077.3,480.9,1078.8,481.6,1080.8,481.6z"/>
			<linearGradient id="SVGID_30_" gradientUnits="userSpaceOnUse" x1="1098.1448" y1="473.0516" x2="1116.4182" y2="473.0516">
				<stop  offset="0" style="stop-color:#1117C8"/>
				<stop  offset="1" style="stop-color:#7644C8"/>
			</linearGradient>
			<path class="st32" d="M1098.1,462.6h3.5l0.4,3.2c0.7-1.2,1.7-2.2,2.8-2.8s2.6-0.9,4.2-0.9c1.3,0,2.4,0.2,3.3,0.6s1.6,0.9,2.2,1.6
				c1.2,1.4,1.8,3.6,1.8,6.5V484h-3.9v-13.2c0-1.9-0.4-3.3-1.1-4.2s-1.9-1.4-3.6-1.4c-0.9,0-1.8,0.1-2.4,0.4
				c-0.7,0.3-1.3,0.7-1.8,1.3c-1,1.2-1.5,2.8-1.5,5V484h-3.9V462.6z"/>
		</g>
		<g id="text" class="st0">
			<text transform="matrix(1.0018 0 0 1 600.0097 422.4962)" class="st2 st33 st34">LiTo</text>
			<text transform="matrix(1.1189 0 0 1 620.1922 483.9941)" class="st2 st35 st36">Creative Innovation</text>
		</g>
	</g>
	<g id="_x32_">
		<rect x="60" y="-1310.1" width="1220.9" height="559.6"/>
		<g id="Chim_1.3_2_">
			<g id="canh_10_">
				<g>
					<g>
						<path class="st37" d="M284.1-1108.3c-2.4-1.9-5.7-4.4-9.5-7.3c0,0-8.2-6.2-15.9-11.7c-24-17.3-51-32.9-51.1-32.9l0,0
							c-16.1-9-29.1-15.4-39.2-19.5c11.7-0.7,21.6-0.5,29.3,0c10.7,0.7,19.3,2,24.3,2.7c4.7,0.7,8.7,1.4,11.5,2
							c-1.5-1-3.9-2.5-6.8-4c-4-2-14-6.7-37.1-8.4c-4.6-0.3-15.9-1-30.9,0c-12,0.8-22.1,2.5-29.7,4c2.7,0.4,6.8,1.2,11.5,2.5
							c10.1,2.8,17.4,6.3,20.9,8.1c29.8,14.9,44.1,23.3,44.1,23.3s57.6,34.3,97.6,62.5c0.1,0.1,0.5,0.4,1.1,0.8
							c1.4,1,3.8,2.7,6.9,4.6c2.6,1.7,5.3,3.3,8,4.9c-5.3-5.3-11-10.8-17.2-16.3C295.8-1098.5,289.9-1103.6,284.1-1108.3z"/>
					</g>
					<path class="st37" d="M378.4-1065.1c-33.3,56.5-62.2,119-83.8,188c-1.4,4.6-2.8,9.1-4.2,13.6c1.3-3.8,3.4-8.9,6.5-14.6
						c0.5-0.9,0.9-1.5,1-1.8c8.5-18.7,18.7-36.4,31.4-52.6c14.5-18.6,32.2-33.8,50.9-47.8c13.5-10.1,28.3-17.6,43.6-24.7
						c24.5-11.4,46.3-26.8,63.2-48.3c1.5-2,12.6-16,16.9-20.8c11.3-12.6,26-17.6,42.2-18.1c16.7-0.5,33.5,0.3,50.2,0.5
						c0.7,0,1.5-0.1,2.5-1c-1.1-0.5-2.2-1.1-3.4-1.4c-10.8-2.8-21.6-5.4-32.2-8.4c-3.5-1-7.1-2.9-9.9-5.3
						c-14.8-12.2-31.1-21.2-50.1-24.4c-20.2-3.4-39.7-0.6-58.3,8.4c-2,1-4.1,1.8-6.5,2.1c2.4-1.8,4.7-3.7,7.1-5.4
						c15.3-10.7,32.3-15.7,50.8-14.3c19.1,1.4,37.3,7.2,52.4,19c11.1,8.7,23.5,12.9,36.4,17.2c22.4,7.4,44.6,15.7,66.8,23.6
						c1.1,0.4,2.2,1,3.4,1.5c-12.3-1.1-24.4-2.5-36.4-3.2c-12.8-0.7-25.6-1-38.4-0.8c-17.2,0.3-34.4,1.7-50.6,8.4
						c-9.8,4-18.1,10.2-23.3,19.2c-7.3,12.5-16.7,23.2-26.6,33.3c-15.8,16.2-35.4,27.2-56.2,35.7c-20.2,8.4-37.5,21-54.4,34.5
						c-31.4,24.9-53.3,57.2-70.7,92.7c-6,12.3-12.1,24.7-18,37.1c-3.8,8-7.5,16-11.8,23.8c2.4-10.7,4.7-21.3,7.1-32
						c7-31.5,15-62.7,25.2-93.3c10.9-32.8,24.4-64.5,42.3-94.2C353.5-1035.5,365.1-1051,378.4-1065.1z"/>
					<g>
						<path class="st37" d="M395.8-1154.2c7.5,5.1,12.2,8.5,14.9,10.6c10.7,7.9,19.5,15,25.8,20.3c-2.6-3.9-4.1-7.1-6.5-9.5
							c-9.6-9.4-19.2-18.8-29.2-27.7c-22.5-20-47.8-35.5-75.3-47.3c-24.7-10.6-50.4-18.8-76.5-25.5c-57.7-14.8-93.5-14.3-102.8-14.1
							c-9.6,0.2-17.6,0.9-22.9,1.4c1.3,0.6,15.2,7.8,16,8.3c8.8,5,35.8,18.8,47.1,24.9c9.1,4.8,30.9,16.4,55.5,34.4
							c16.2,11.9,29.9,24,44.6,37.7c14.4,13.5,25.8,29.2,35.8,46c6.3,10.6,14.6,19.1,26.2,23.9c8.1,3.4,16.4,5.2,25.2,4.1
							c-1.3-0.8-2.6-1.2-4-1.5c-7.2-1.5-13.5-4.2-19-7.8c-8.5-5.6-15-15.4-20.4-24.1c-14-22.5-15.5-25.9-25.5-38
							c-6.4-7.7-12.4-13.8-14.4-15.8c-5.4-5.3-10-9.4-14.6-13.3c-16.4-13.8-31.4-24.4-33.8-26.1c-23.9-16.8-47.2-31.1-61.9-39.7
							c19.5,1,42.9,3.6,68.8,9.6c24.3,5.7,45.1,13,62.3,20.3c14.9,6.5,27,12.8,35.8,17.7C366.1-1174.6,380.7-1164.5,395.8-1154.2z"
							/>
					</g>
				</g>
			</g>
		</g>
		<g>
			<text transform="matrix(1.1189 0 0 1 594.9494 -799.4807)" class="st37 st35 st36">Creative Innovation</text>
		</g>
		<text transform="matrix(1.0018 0 0 1 578.9183 -855.4207)" class="st37 st33 st34">LiTo</text>
	</g>
	<g id="_x31_">
		<linearGradient id="SVGID_31_" gradientUnits="userSpaceOnUse" x1="60.0033" y1="-389.856" x2="1280.9423" y2="-389.856">
			<stop  offset="0" style="stop-color:#1117C8"/>
			<stop  offset="0.2156" style="stop-color:#2D24C8"/>
			<stop  offset="0.5587" style="stop-color:#5535C8"/>
			<stop  offset="0.8323" style="stop-color:#6D40C8"/>
			<stop  offset="1" style="stop-color:#7644C8"/>
		</linearGradient>
		<rect x="60" y="-669.7" class="st38" width="1220.9" height="559.6"/>
		<g id="Chim_1.3_3_">
			<g id="canh_13_">
				<g>
					<g>
						<path class="st37" d="M299.3-496.4c-2.4-1.9-5.7-4.4-9.5-7.3c0,0-8.2-6.2-15.9-11.7c-24-17.3-51-32.9-51.1-32.9l0,0
							c-16.1-9-29.1-15.4-39.2-19.5c11.7-0.7,21.6-0.5,29.3,0c10.7,0.7,19.3,2,24.3,2.7c4.7,0.7,8.7,1.4,11.5,2
							c-1.5-1-3.9-2.5-6.8-4c-4-2-14-6.7-37.1-8.4c-4.6-0.3-15.9-1-30.9,0c-12,0.8-22.1,2.5-29.7,4c2.7,0.4,6.8,1.2,11.5,2.5
							c10.1,2.8,17.4,6.3,20.9,8.1c29.8,14.9,44.1,23.3,44.1,23.3s57.6,34.3,97.6,62.5c0.1,0.1,0.5,0.4,1.1,0.8
							c1.4,1,3.8,2.7,6.9,4.6c2.6,1.7,5.3,3.3,8,4.9c-5.3-5.3-11-10.8-17.2-16.3C311-486.6,305-491.7,299.3-496.4z"/>
					</g>
					<path class="st37" d="M393.6-453.2c-33.3,56.5-62.2,119-83.8,188c-1.4,4.6-2.8,9.1-4.2,13.6c1.3-3.8,3.4-8.9,6.5-14.6
						c0.5-0.9,0.9-1.5,1-1.8c8.5-18.7,18.7-36.4,31.4-52.6c14.5-18.6,32.2-33.8,50.9-47.8c13.5-10.1,28.3-17.6,43.6-24.7
						c24.5-11.4,46.3-26.8,63.2-48.3c1.5-2,12.6-16,16.9-20.8c11.3-12.6,26-17.6,42.2-18.1c16.7-0.5,33.5,0.3,50.2,0.5
						c0.7,0,1.5-0.1,2.5-1c-1.1-0.5-2.2-1.1-3.4-1.4c-10.8-2.8-21.6-5.4-32.2-8.4c-3.5-1-7.1-2.9-9.9-5.3
						c-14.8-12.2-31.1-21.2-50.1-24.4c-20.2-3.4-39.7-0.6-58.3,8.4c-2,1-4.1,1.8-6.5,2.1c2.4-1.8,4.7-3.7,7.1-5.4
						c15.3-10.7,32.3-15.7,50.8-14.3c19.1,1.4,37.3,7.2,52.4,19c11.1,8.7,23.5,12.9,36.4,17.2c22.4,7.4,44.6,15.7,66.8,23.6
						c1.1,0.4,2.2,1,3.4,1.5c-12.3-1.1-24.4-2.5-36.4-3.2c-12.8-0.7-25.6-1-38.4-0.8c-17.2,0.3-34.4,1.7-50.6,8.4
						c-9.8,4-18.1,10.2-23.3,19.2c-7.3,12.5-16.7,23.2-26.6,33.3c-15.8,16.2-35.4,27.2-56.2,35.7c-20.2,8.4-37.5,21-54.4,34.5
						c-31.4,24.9-53.3,57.2-70.7,92.7c-6,12.3-12.1,24.7-18,37.1c-3.8,8-7.5,16-11.8,23.8c2.4-10.7,4.7-21.3,7.1-32
						c7-31.5,15-62.7,25.2-93.3c10.9-32.8,24.4-64.5,42.3-94.2C368.7-423.7,380.2-439.1,393.6-453.2z"/>
					<g>
						<path class="st37" d="M410.9-542.3c7.5,5.1,12.2,8.5,14.9,10.6c10.7,7.9,19.5,15,25.8,20.3c-2.6-3.9-4.1-7.1-6.5-9.5
							c-9.6-9.4-19.2-18.8-29.2-27.7c-22.5-20-47.8-35.5-75.3-47.3c-24.7-10.6-50.4-18.8-76.5-25.5c-57.7-14.8-93.5-14.3-102.8-14.1
							c-9.6,0.2-17.6,0.9-22.9,1.4c1.3,0.6,15.2,7.8,16,8.3c8.8,5,35.8,18.8,47.1,24.9c9.1,4.8,30.9,16.4,55.5,34.4
							c16.2,11.9,29.9,24,44.6,37.7c14.4,13.5,25.8,29.2,35.8,46c6.3,10.6,14.6,19.1,26.2,23.9c8.1,3.4,16.4,5.2,25.2,4.1
							c-1.3-0.8-2.6-1.2-4-1.5c-7.2-1.5-13.5-4.2-19-7.8c-8.5-5.6-15-15.4-20.4-24.1c-14-22.5-15.5-25.9-25.5-38
							c-6.4-7.7-12.4-13.8-14.4-15.8c-5.4-5.3-10-9.4-14.6-13.3c-16.4-13.8-31.4-24.4-33.8-26.1c-23.9-16.8-47.2-31.1-61.9-39.7
							c19.5,1,42.9,3.6,68.8,9.6c24.3,5.7,45.1,13,62.3,20.3c14.9,6.5,27,12.8,35.8,17.7C381.2-562.7,395.9-552.7,410.9-542.3z"/>
					</g>
				</g>
			</g>
		</g>
		<g>
			<text transform="matrix(1.1189 0 0 1 610.1009 -187.6135)" class="st37 st35 st36">Creative Innovation</text>
		</g>
		<g>
			<text transform="matrix(1.0018 0 0 1 594.0698 -243.5535)" class="st37 st33 st34">LiTo</text>
		</g>
	</g>
</g>
</svg>
